<svg xmlns="http://www.w3.org/2000/svg" viewBox="-48.0 -102.0 2760.0 1342.8" width="2760" height="1343" font-family="'Fira Sans','DejaVu Sans',sans-serif">
<rect x="-48.0" y="-102.0" width="2760.0" height="1342.8" fill="#0f172a"/>
<g transform="translate(82.0,72.0) rotate(0)"><rect x="-82.0" y="-72.0" width="164.0" height="144.0" rx="14" fill="#1e293b" stroke="#a78bfa" stroke-width="2.5"/><text x="0.0" y="-44.0" font-size="19" fill="#c4b5fd" text-anchor="middle" font-weight="600" letter-spacing="0.5">SUPER + F1</text><text x="0.0" y="-6.1" font-size="24" fill="#e2e8f0" text-anchor="middle">smoke-</text><text x="0.0" y="21.7" font-size="24" fill="#e2e8f0" text-anchor="middle">detector-</text><text x="0.0" y="49.6" font-size="24" fill="#e2e8f0" text-anchor="middle">beep</text></g><g transform="translate(82.0,232.0) rotate(0)"><rect x="-82.0" y="-72.0" width="164.0" height="144.0" rx="14" fill="#1e293b" stroke="#a78bfa" stroke-width="2.5"/><text x="0.0" y="-44.0" font-size="19" fill="#c4b5fd" text-anchor="middle" font-weight="600" letter-spacing="0.5">SUPER + F2</text><text x="0.0" y="6.0" font-size="30" fill="#e2e8f0" text-anchor="middle">punch-</text><text x="0.0" y="40.8" font-size="30" fill="#e2e8f0" text-anchor="middle">gaming</text></g><g transform="translate(82.0,392.0) rotate(0)"><rect x="-82.0" y="-72.0" width="164.0" height="144.0" rx="14" fill="#1e293b" stroke="#38bdf8" stroke-width="2.5"/><text x="0.0" y="-44.0" font-size="19" fill="#7dd3fc" text-anchor="middle" font-weight="600" letter-spacing="0.5">F1</text><text x="0.0" y="6.0" font-size="30" fill="#e2e8f0" text-anchor="middle">outro-</text><text x="0.0" y="40.8" font-size="30" fill="#e2e8f0" text-anchor="middle">song</text></g><g transform="translate(82.0,552.0) rotate(0)"><rect x="-82.0" y="-72.0" width="164.0" height="144.0" rx="14" fill="#1e293b" stroke="#38bdf8" stroke-width="2.5"/><text x="0.0" y="-44.0" font-size="19" fill="#7dd3fc" text-anchor="middle" font-weight="600" letter-spacing="0.5">F2</text><text x="0.0" y="6.0" font-size="30" fill="#e2e8f0" text-anchor="middle">anime-</text><text x="0.0" y="40.8" font-size="30" fill="#e2e8f0" text-anchor="middle">ahh</text></g><g transform="translate(262.0,72.0) rotate(0)"><rect x="-82.0" y="-72.0" width="164.0" height="144.0" rx="14" fill="#1e293b" stroke="#a78bfa" stroke-width="2.5"/><text x="0.0" y="-44.0" font-size="19" fill="#c4b5fd" text-anchor="middle" font-weight="600" letter-spacing="0.5">SUPER + F3</text><text x="0.0" y="7.5" font-size="25" fill="#e2e8f0" text-anchor="middle">talking-ben-</text><text x="0.0" y="36.5" font-size="25" fill="#e2e8f0" text-anchor="middle">saying-ben</text></g><g transform="translate(262.0,232.0) rotate(0)"><rect x="-82.0" y="-72.0" width="164.0" height="144.0" rx="14" fill="#1e293b" stroke="#a78bfa" stroke-width="2.5"/><text x="0.0" y="-44.0" font-size="19" fill="#c4b5fd" text-anchor="middle" font-weight="600" letter-spacing="0.5">SUPER + F4</text><text x="0.0" y="23.4" font-size="30" fill="#e2e8f0" text-anchor="middle">rizz</text></g><g transform="translate(262.0,392.0) rotate(0)"><rect x="-82.0" y="-72.0" width="164.0" height="144.0" rx="14" fill="#1e293b" stroke="#38bdf8" stroke-width="2.5"/><text x="0.0" y="-44.0" font-size="19" fill="#7dd3fc" text-anchor="middle" font-weight="600" letter-spacing="0.5">F3</text><text x="0.0" y="6.0" font-size="30" fill="#e2e8f0" text-anchor="middle">rizzbot-</text><text x="0.0" y="40.8" font-size="30" fill="#e2e8f0" text-anchor="middle">laugh</text></g><g transform="translate(262.0,552.0) rotate(0)"><rect x="-82.0" y="-72.0" width="164.0" height="144.0" rx="14" fill="#1e293b" stroke="#38bdf8" stroke-width="2.5"/><text x="0.0" y="-44.0" font-size="19" fill="#7dd3fc" text-anchor="middle" font-weight="600" letter-spacing="0.5">F4</text><text x="0.0" y="23.4" font-size="30" fill="#e2e8f0" text-anchor="middle">shocked</text></g><g transform="translate(442.0,46.0) rotate(0)"><rect x="-82.0" y="-72.0" width="164.0" height="144.0" rx="14" fill="#1e293b" stroke="#a78bfa" stroke-width="2.5"/><text x="0.0" y="-44.0" font-size="19" fill="#c4b5fd" text-anchor="middle" font-weight="600" letter-spacing="0.5">SUPER + F5</text><text x="0.0" y="7.5" font-size="25" fill="#e2e8f0" text-anchor="middle">talkingg-</text><text x="0.0" y="36.5" font-size="25" fill="#e2e8f0" text-anchor="middle">benn-laughh</text></g><g transform="translate(442.0,206.0) rotate(0)"><rect x="-82.0" y="-72.0" width="164.0" height="144.0" rx="14" fill="#1e293b" stroke="#a78bfa" stroke-width="2.5"/><text x="0.0" y="-44.0" font-size="19" fill="#c4b5fd" text-anchor="middle" font-weight="600" letter-spacing="0.5">SUPER + F6</text><text x="0.0" y="-6.1" font-size="24" fill="#e2e8f0" text-anchor="middle">we-are-</text><text x="0.0" y="21.7" font-size="24" fill="#e2e8f0" text-anchor="middle">charlie-kirk-</text><text x="0.0" y="49.6" font-size="24" fill="#e2e8f0" text-anchor="middle">phone</text></g><g transform="translate(442.0,366.0) rotate(0)"><rect x="-82.0" y="-72.0" width="164.0" height="144.0" rx="14" fill="#1e293b" stroke="#38bdf8" stroke-width="2.5"/><text x="0.0" y="-44.0" font-size="19" fill="#7dd3fc" text-anchor="middle" font-weight="600" letter-spacing="0.5">F5</text><text x="0.0" y="6.0" font-size="30" fill="#e2e8f0" text-anchor="middle">shut-up-</text><text x="0.0" y="40.8" font-size="30" fill="#e2e8f0" text-anchor="middle">lois</text></g><g transform="translate(442.0,526.0) rotate(0)"><rect x="-82.0" y="-72.0" width="164.0" height="144.0" rx="14" fill="#1e293b" stroke="#38bdf8" stroke-width="2.5"/><text x="0.0" y="-44.0" font-size="19" fill="#7dd3fc" text-anchor="middle" font-weight="600" letter-spacing="0.5">F6</text><text x="0.0" y="6.0" font-size="30" fill="#e2e8f0" text-anchor="middle">fart-with-</text><text x="0.0" y="40.8" font-size="30" fill="#e2e8f0" text-anchor="middle">reverb</text></g><g transform="translate(622.0,18.0) rotate(0)"><rect x="-82.0" y="-72.0" width="164.0" height="144.0" rx="14" fill="#1e293b" stroke="#a78bfa" stroke-width="2.5"/><text x="0.0" y="-44.0" font-size="19" fill="#c4b5fd" text-anchor="middle" font-weight="600" letter-spacing="0.5">SUPER + F7</text><text x="0.0" y="7.2" font-size="26" fill="#e2e8f0" text-anchor="middle">talking-</text><text x="0.0" y="37.4" font-size="26" fill="#e2e8f0" text-anchor="middle">benn-ughhh</text></g><g transform="translate(622.0,178.0) rotate(0)"><rect x="-82.0" y="-72.0" width="164.0" height="144.0" rx="14" fill="#1e293b" stroke="#a78bfa" stroke-width="2.5"/><text x="0.0" y="-44.0" font-size="19" fill="#c4b5fd" text-anchor="middle" font-weight="600" letter-spacing="0.5">SUPER + F8</text><text x="0.0" y="23.4" font-size="30" fill="#e2e8f0" text-anchor="middle">core</text></g><g transform="translate(622.0,338.0) rotate(0)"><rect x="-82.0" y="-72.0" width="164.0" height="144.0" rx="14" fill="#1e293b" stroke="#38bdf8" stroke-width="2.5"/><text x="0.0" y="-44.0" font-size="19" fill="#7dd3fc" text-anchor="middle" font-weight="600" letter-spacing="0.5">F7</text><text x="0.0" y="6.0" font-size="30" fill="#e2e8f0" text-anchor="middle">daddys-</text><text x="0.0" y="40.8" font-size="30" fill="#e2e8f0" text-anchor="middle">home</text></g><g transform="translate(622.0,498.0) rotate(0)"><rect x="-82.0" y="-72.0" width="164.0" height="144.0" rx="14" fill="#1e293b" stroke="#38bdf8" stroke-width="2.5"/><text x="0.0" y="-44.0" font-size="19" fill="#7dd3fc" text-anchor="middle" font-weight="600" letter-spacing="0.5">F8</text><text x="0.0" y="7.2" font-size="26" fill="#e2e8f0" text-anchor="middle">spongebob-</text><text x="0.0" y="37.4" font-size="26" fill="#e2e8f0" text-anchor="middle">fail</text></g><g transform="translate(802.0,52.0) rotate(0)"><rect x="-82.0" y="-72.0" width="164.0" height="144.0" rx="14" fill="#1e293b" stroke="#a78bfa" stroke-width="2.5"/><text x="0.0" y="-44.0" font-size="19" fill="#c4b5fd" text-anchor="middle" font-weight="600" letter-spacing="0.5">SUPER + F9</text><text x="0.0" y="6.0" font-size="30" fill="#e2e8f0" text-anchor="middle">talking-</text><text x="0.0" y="40.8" font-size="30" fill="#e2e8f0" text-anchor="middle">benn-yes</text></g><g transform="translate(802.0,212.0) rotate(0)"><rect x="-82.0" y="-72.0" width="164.0" height="144.0" rx="14" fill="#1e293b" stroke="#a78bfa" stroke-width="2.5"/><text x="0.0" y="-44.0" font-size="19" fill="#c4b5fd" text-anchor="middle" font-weight="600" letter-spacing="0.5">SUPER + F10</text><text x="0.0" y="6.0" font-size="30" fill="#e2e8f0" text-anchor="middle">long-</text><text x="0.0" y="40.8" font-size="30" fill="#e2e8f0" text-anchor="middle">brain-fart</text></g><g transform="translate(802.0,372.0) rotate(0)"><rect x="-82.0" y="-72.0" width="164.0" height="144.0" rx="14" fill="#1e293b" stroke="#38bdf8" stroke-width="2.5"/><text x="0.0" y="-44.0" font-size="19" fill="#7dd3fc" text-anchor="middle" font-weight="600" letter-spacing="0.5">F9</text><text x="0.0" y="23.4" font-size="30" fill="#e2e8f0" text-anchor="middle">faaah</text></g><g transform="translate(802.0,532.0) rotate(0)"><rect x="-82.0" y="-72.0" width="164.0" height="144.0" rx="14" fill="#1e293b" stroke="#38bdf8" stroke-width="2.5"/><text x="0.0" y="-44.0" font-size="19" fill="#7dd3fc" text-anchor="middle" font-weight="600" letter-spacing="0.5">F10</text><text x="0.0" y="6.0" font-size="30" fill="#e2e8f0" text-anchor="middle">vine-</text><text x="0.0" y="40.8" font-size="30" fill="#e2e8f0" text-anchor="middle">boom</text></g><g transform="translate(982.0,72.0) rotate(0)"><rect x="-82.0" y="-72.0" width="164.0" height="144.0" rx="14" fill="#1e293b" stroke="#a78bfa" stroke-width="2.5"/><text x="0.0" y="-44.0" font-size="19" fill="#c4b5fd" text-anchor="middle" font-weight="600" letter-spacing="0.5">SUPER + F11</text><text x="0.0" y="7.2" font-size="26" fill="#e2e8f0" text-anchor="middle">talking-</text><text x="0.0" y="37.4" font-size="26" fill="#e2e8f0" text-anchor="middle">bennnn-noo</text></g><g transform="translate(982.0,232.0) rotate(0)"><rect x="-82.0" y="-72.0" width="164.0" height="144.0" rx="14" fill="#1e293b" stroke="#a78bfa" stroke-width="2.5"/><text x="0.0" y="-44.0" font-size="19" fill="#c4b5fd" text-anchor="middle" font-weight="600" letter-spacing="0.5">SUPER + F12</text><text x="0.0" y="6.0" font-size="30" fill="#e2e8f0" text-anchor="middle">tuco-get-</text><text x="0.0" y="40.8" font-size="30" fill="#e2e8f0" text-anchor="middle">out</text></g><g transform="translate(982.0,392.0) rotate(0)"><rect x="-82.0" y="-72.0" width="164.0" height="144.0" rx="14" fill="#1e293b" stroke="#38bdf8" stroke-width="2.5"/><text x="0.0" y="-44.0" font-size="19" fill="#7dd3fc" text-anchor="middle" font-weight="600" letter-spacing="0.5">F11</text><text x="0.0" y="22.8" font-size="28" fill="#e2e8f0" text-anchor="middle">gopgopgop</text></g><g transform="translate(982.0,552.0) rotate(0)"><rect x="-82.0" y="-72.0" width="164.0" height="144.0" rx="14" fill="#1e293b" stroke="#38bdf8" stroke-width="2.5"/><text x="0.0" y="-44.0" font-size="19" fill="#7dd3fc" text-anchor="middle" font-weight="600" letter-spacing="0.5">F12</text><text x="0.0" y="6.0" font-size="30" fill="#e2e8f0" text-anchor="middle">indian-</text><text x="0.0" y="40.8" font-size="30" fill="#e2e8f0" text-anchor="middle">song</text></g><g transform="translate(1682.0,72.0) rotate(0)"><rect x="-82.0" y="-72.0" width="164.0" height="144.0" rx="14" fill="#1e293b" stroke="#a78bfa" stroke-width="2.5"/><text x="0.0" y="-44.0" font-size="19" fill="#c4b5fd" text-anchor="middle" font-weight="600" letter-spacing="0.5">SUPER + F13</text><text x="0.0" y="-2.6" font-size="20" fill="#e2e8f0" text-anchor="middle">i-farted-and-a-</text><text x="0.0" y="20.6" font-size="20" fill="#e2e8f0" text-anchor="middle">poopy-almost-</text><text x="0.0" y="43.8" font-size="20" fill="#e2e8f0" text-anchor="middle">slipped-out</text></g><g transform="translate(1682.0,232.0) rotate(0)"><rect x="-82.0" y="-72.0" width="164.0" height="144.0" rx="14" fill="#1e293b" stroke="#a78bfa" stroke-width="2.5"/><text x="0.0" y="-44.0" font-size="19" fill="#c4b5fd" text-anchor="middle" font-weight="600" letter-spacing="0.5">SUPER + F14</text><text x="0.0" y="-6.1" font-size="24" fill="#e2e8f0" text-anchor="middle">yo-phone-</text><text x="0.0" y="21.7" font-size="24" fill="#e2e8f0" text-anchor="middle">ringing-</text><text x="0.0" y="49.6" font-size="24" fill="#e2e8f0" text-anchor="middle">chino</text></g><g transform="translate(1682.0,392.0) rotate(0)"><rect x="-82.0" y="-72.0" width="164.0" height="144.0" rx="14" fill="#1e293b" stroke="#38bdf8" stroke-width="2.5"/><text x="0.0" y="-44.0" font-size="19" fill="#7dd3fc" text-anchor="middle" font-weight="600" letter-spacing="0.5">F13</text><text x="0.0" y="6.0" font-size="30" fill="#e2e8f0" text-anchor="middle">ceeday-</text><text x="0.0" y="40.8" font-size="30" fill="#e2e8f0" text-anchor="middle">huh</text></g><g transform="translate(1682.0,552.0) rotate(0)"><rect x="-82.0" y="-72.0" width="164.0" height="144.0" rx="14" fill="#1e293b" stroke="#38bdf8" stroke-width="2.5"/><text x="0.0" y="-44.0" font-size="19" fill="#7dd3fc" text-anchor="middle" font-weight="600" letter-spacing="0.5">F14</text><text x="0.0" y="6.0" font-size="30" fill="#e2e8f0" text-anchor="middle">no-no-</text><text x="0.0" y="40.8" font-size="30" fill="#e2e8f0" text-anchor="middle">wait-wait</text></g><g transform="translate(1862.0,52.0) rotate(0)"><rect x="-82.0" y="-72.0" width="164.0" height="144.0" rx="14" fill="#1e293b" stroke="#a78bfa" stroke-width="2.5"/><text x="0.0" y="-44.0" font-size="19" fill="#c4b5fd" text-anchor="middle" font-weight="600" letter-spacing="0.5">SUPER + F15</text><text x="0.0" y="6.0" font-size="30" fill="#e2e8f0" text-anchor="middle">awkward-</text><text x="0.0" y="40.8" font-size="30" fill="#e2e8f0" text-anchor="middle">cricket</text></g><g transform="translate(1862.0,212.0) rotate(0)"><rect x="-82.0" y="-72.0" width="164.0" height="144.0" rx="14" fill="#1e293b" stroke="#a78bfa" stroke-width="2.5"/><text x="0.0" y="-44.0" font-size="19" fill="#c4b5fd" text-anchor="middle" font-weight="600" letter-spacing="0.5">SUPER + F16</text><text x="0.0" y="8.1" font-size="23" fill="#e2e8f0" text-anchor="middle">undertakers-</text><text x="0.0" y="34.8" font-size="23" fill="#e2e8f0" text-anchor="middle">bell</text></g><g transform="translate(1862.0,372.0) rotate(0)"><rect x="-82.0" y="-72.0" width="164.0" height="144.0" rx="14" fill="#1e293b" stroke="#38bdf8" stroke-width="2.5"/><text x="0.0" y="-44.0" font-size="19" fill="#7dd3fc" text-anchor="middle" font-weight="600" letter-spacing="0.5">F15</text><text x="0.0" y="6.9" font-size="27" fill="#e2e8f0" text-anchor="middle">among-us-</text><text x="0.0" y="38.2" font-size="27" fill="#e2e8f0" text-anchor="middle">role-reveal</text></g><g transform="translate(1862.0,532.0) rotate(0)"><rect x="-82.0" y="-72.0" width="164.0" height="144.0" rx="14" fill="#1e293b" stroke="#38bdf8" stroke-width="2.5"/><text x="0.0" y="-44.0" font-size="19" fill="#7dd3fc" text-anchor="middle" font-weight="600" letter-spacing="0.5">F16</text><text x="0.0" y="23.4" font-size="30" fill="#e2e8f0" text-anchor="middle">m-e-o-w</text></g><g transform="translate(2042.0,18.0) rotate(0)"><rect x="-82.0" y="-72.0" width="164.0" height="144.0" rx="14" fill="#1e293b" stroke="#a78bfa" stroke-width="2.5"/><text x="0.0" y="-44.0" font-size="19" fill="#c4b5fd" text-anchor="middle" font-weight="600" letter-spacing="0.5">SUPER + F17</text><text x="0.0" y="-6.1" font-size="24" fill="#e2e8f0" text-anchor="middle">man-</text><text x="0.0" y="21.7" font-size="24" fill="#e2e8f0" text-anchor="middle">snoring-</text><text x="0.0" y="49.6" font-size="24" fill="#e2e8f0" text-anchor="middle">meme</text></g><g transform="translate(2042.0,178.0) rotate(0)"><rect x="-82.0" y="-72.0" width="164.0" height="144.0" rx="14" fill="#1e293b" stroke="#a78bfa" stroke-width="2.5"/><text x="0.0" y="-44.0" font-size="19" fill="#c4b5fd" text-anchor="middle" font-weight="600" letter-spacing="0.5">SUPER + F18</text><text x="0.0" y="-6.1" font-size="24" fill="#e2e8f0" text-anchor="middle">italian-</text><text x="0.0" y="21.7" font-size="24" fill="#e2e8f0" text-anchor="middle">brainrot-</text><text x="0.0" y="49.6" font-size="24" fill="#e2e8f0" text-anchor="middle">ringtone</text></g><g transform="translate(2042.0,338.0) rotate(0)"><rect x="-82.0" y="-72.0" width="164.0" height="144.0" rx="14" fill="#1e293b" stroke="#38bdf8" stroke-width="2.5"/><text x="0.0" y="-44.0" font-size="19" fill="#7dd3fc" text-anchor="middle" font-weight="600" letter-spacing="0.5">F17</text><text x="0.0" y="23.4" font-size="30" fill="#e2e8f0" text-anchor="middle">applepay</text></g><g transform="translate(2042.0,498.0) rotate(0)"><rect x="-82.0" y="-72.0" width="164.0" height="144.0" rx="14" fill="#1e293b" stroke="#38bdf8" stroke-width="2.5"/><text x="0.0" y="-44.0" font-size="19" fill="#7dd3fc" text-anchor="middle" font-weight="600" letter-spacing="0.5">F18</text><text x="0.0" y="23.4" font-size="30" fill="#e2e8f0" text-anchor="middle">lobotomy</text></g><g transform="translate(2222.0,46.0) rotate(0)"><rect x="-82.0" y="-72.0" width="164.0" height="144.0" rx="14" fill="#1e293b" stroke="#a78bfa" stroke-width="2.5"/><text x="0.0" y="-44.0" font-size="19" fill="#c4b5fd" text-anchor="middle" font-weight="600" letter-spacing="0.5">SUPER + F19</text><text x="0.0" y="7.5" font-size="25" fill="#e2e8f0" text-anchor="middle">999-social-</text><text x="0.0" y="36.5" font-size="25" fill="#e2e8f0" text-anchor="middle">credit-siren</text></g><g transform="translate(2222.0,206.0) rotate(0)"><rect x="-82.0" y="-72.0" width="164.0" height="144.0" rx="14" fill="#1e293b" stroke="#a78bfa" stroke-width="2.5"/><text x="0.0" y="-44.0" font-size="19" fill="#c4b5fd" text-anchor="middle" font-weight="600" letter-spacing="0.5">SUPER + F20</text><text x="0.0" y="-6.1" font-size="24" fill="#e2e8f0" text-anchor="middle">oh-my-god-</text><text x="0.0" y="21.7" font-size="24" fill="#e2e8f0" text-anchor="middle">bro-oh-hell-</text><text x="0.0" y="49.6" font-size="24" fill="#e2e8f0" text-anchor="middle">nah-man</text></g><g transform="translate(2222.0,366.0) rotate(0)"><rect x="-82.0" y="-72.0" width="164.0" height="144.0" rx="14" fill="#1e293b" stroke="#38bdf8" stroke-width="2.5"/><text x="0.0" y="-44.0" font-size="19" fill="#7dd3fc" text-anchor="middle" font-weight="600" letter-spacing="0.5">F19</text><text x="0.0" y="23.4" font-size="30" fill="#e2e8f0" text-anchor="middle">let-her-go</text></g><g transform="translate(2222.0,526.0) rotate(0)"><rect x="-82.0" y="-72.0" width="164.0" height="144.0" rx="14" fill="#1e293b" stroke="#38bdf8" stroke-width="2.5"/><text x="0.0" y="-44.0" font-size="19" fill="#7dd3fc" text-anchor="middle" font-weight="600" letter-spacing="0.5">F20</text><text x="0.0" y="-6.1" font-size="24" fill="#e2e8f0" text-anchor="middle">baby-</text><text x="0.0" y="21.7" font-size="24" fill="#e2e8f0" text-anchor="middle">laughing-</text><text x="0.0" y="49.6" font-size="24" fill="#e2e8f0" text-anchor="middle">meme</text></g><g transform="translate(2402.0,72.0) rotate(0)"><rect x="-82.0" y="-72.0" width="164.0" height="144.0" rx="14" fill="#1e293b" stroke="#a78bfa" stroke-width="2.5"/><text x="0.0" y="-44.0" font-size="19" fill="#c4b5fd" text-anchor="middle" font-weight="600" letter-spacing="0.5">SUPER + F21</text><text x="0.0" y="6.0" font-size="30" fill="#e2e8f0" text-anchor="middle">what-a-</text><text x="0.0" y="40.8" font-size="30" fill="#e2e8f0" text-anchor="middle">good-boy</text></g><g transform="translate(2402.0,232.0) rotate(0)"><rect x="-82.0" y="-72.0" width="164.0" height="144.0" rx="14" fill="#1e293b" stroke="#a78bfa" stroke-width="2.5"/><text x="0.0" y="-44.0" font-size="19" fill="#c4b5fd" text-anchor="middle" font-weight="600" letter-spacing="0.5">SUPER + F22</text><text x="0.0" y="6.0" font-size="30" fill="#e2e8f0" text-anchor="middle">perfect-</text><text x="0.0" y="40.8" font-size="30" fill="#e2e8f0" text-anchor="middle">fart</text></g><g transform="translate(2402.0,392.0) rotate(0)"><rect x="-82.0" y="-72.0" width="164.0" height="144.0" rx="14" fill="#1e293b" stroke="#38bdf8" stroke-width="2.5"/><text x="0.0" y="-44.0" font-size="19" fill="#7dd3fc" text-anchor="middle" font-weight="600" letter-spacing="0.5">F21</text><text x="0.0" y="6.0" font-size="30" fill="#e2e8f0" text-anchor="middle">please-</text><text x="0.0" y="40.8" font-size="30" fill="#e2e8f0" text-anchor="middle">bro</text></g><g transform="translate(2402.0,552.0) rotate(0)"><rect x="-82.0" y="-72.0" width="164.0" height="144.0" rx="14" fill="#1e293b" stroke="#38bdf8" stroke-width="2.5"/><text x="0.0" y="-44.0" font-size="19" fill="#7dd3fc" text-anchor="middle" font-weight="600" letter-spacing="0.5">F22</text><text x="0.0" y="23.4" font-size="30" fill="#e2e8f0" text-anchor="middle">prowler</text></g><g transform="translate(2582.0,72.0) rotate(0)"><rect x="-82.0" y="-72.0" width="164.0" height="144.0" rx="14" fill="#1e293b" stroke="#334155" stroke-width="2.5"/><text x="0.0" y="-44.0" font-size="19" fill="#64748b" text-anchor="middle" font-weight="600" letter-spacing="0.5">Index</text><text x="0.0" y="23.4" font-size="30" fill="#64748b" text-anchor="middle">layer key</text></g><g transform="translate(2582.0,232.0) rotate(0)"><rect x="-82.0" y="-72.0" width="164.0" height="144.0" rx="14" fill="#1e293b" stroke="#4ade80" stroke-width="2.5"/><text x="0.0" y="-44.0" font-size="16" fill="#86efac" text-anchor="middle" font-weight="600" letter-spacing="0.5">SUPER + backspace</text><text x="0.0" y="20.9" font-size="21" fill="#e2e8f0" text-anchor="middle">stop playback</text></g><g transform="translate(2582.0,392.0) rotate(0)"><rect x="-82.0" y="-72.0" width="164.0" height="144.0" rx="14" fill="#1e293b" stroke="#38bdf8" stroke-width="2.5"/><text x="0.0" y="-44.0" font-size="19" fill="#7dd3fc" text-anchor="middle" font-weight="600" letter-spacing="0.5">F23</text><text x="0.0" y="6.6" font-size="28" fill="#e2e8f0" text-anchor="middle">what-the-</text><text x="0.0" y="39.1" font-size="28" fill="#e2e8f0" text-anchor="middle">hell-meme</text></g><g transform="translate(2582.0,552.0) rotate(0)"><rect x="-82.0" y="-72.0" width="164.0" height="144.0" rx="14" fill="#1e293b" stroke="#38bdf8" stroke-width="2.5"/><text x="0.0" y="-44.0" font-size="19" fill="#7dd3fc" text-anchor="middle" font-weight="600" letter-spacing="0.5">F24</text><text x="0.0" y="6.0" font-size="30" fill="#e2e8f0" text-anchor="middle">deg-deg-</text><text x="0.0" y="40.8" font-size="30" fill="#e2e8f0" text-anchor="middle">sussy</text></g><g transform="translate(1031.0,790.0) rotate(30)"><rect x="-82.0" y="-72.0" width="164.0" height="144.0" rx="14" fill="#1e293b" stroke="#a78bfa" stroke-width="2.5"/><text x="0.0" y="-44.0" font-size="19" fill="#c4b5fd" text-anchor="middle" font-weight="600" letter-spacing="0.5">SUPER + .</text><text x="0.0" y="23.4" font-size="30" fill="#e2e8f0" text-anchor="middle">ack</text></g><g transform="translate(1165.0,912.0) rotate(30)"><rect x="-82.0" y="-115.2" width="164.0" height="230.4" rx="14" fill="#1e293b" stroke="#a78bfa" stroke-width="2.5"/><text x="0.0" y="-87.2" font-size="19" fill="#c4b5fd" text-anchor="middle" font-weight="600" letter-spacing="0.5">SUPER + [</text><text x="0.0" y="-11.4" font-size="30" fill="#e2e8f0" text-anchor="middle">wrong-</text><text x="0.0" y="23.4" font-size="30" fill="#e2e8f0" text-anchor="middle">answer-</text><text x="0.0" y="58.2" font-size="30" fill="#e2e8f0" text-anchor="middle">buzzer</text></g><g transform="translate(1633.0,790.0) rotate(-30)"><rect x="-82.0" y="-72.0" width="164.0" height="144.0" rx="14" fill="#1e293b" stroke="#a78bfa" stroke-width="2.5"/><text x="0.0" y="-44.0" font-size="19" fill="#c4b5fd" text-anchor="middle" font-weight="600" letter-spacing="0.5">SUPER + ,</text><text x="0.0" y="23.4" font-size="30" fill="#e2e8f0" text-anchor="middle">pluh</text></g><g transform="translate(1499.0,912.0) rotate(-30)"><rect x="-82.0" y="-115.2" width="164.0" height="230.4" rx="14" fill="#1e293b" stroke="#a78bfa" stroke-width="2.5"/><text x="0.0" y="-87.2" font-size="19" fill="#c4b5fd" text-anchor="middle" font-weight="600" letter-spacing="0.5">SUPER + ]</text><text x="0.0" y="23.4" font-size="30" fill="#e2e8f0" text-anchor="middle">correct</text></g><text x="1340.0" y="26.0" font-size="52" fill="#e2e8f0" text-anchor="middle" font-weight="700" letter-spacing="3">SOUNDBOARD</text><text x="1340.0" y="64.0" font-size="22" fill="#64748b" text-anchor="middle">50 sounds bound · pwsp</text><rect x="1216.9" y="134.0" width="246.1" height="74" rx="12" fill="#1e293b" stroke="#38bdf8" stroke-width="2.5"/><text x="1340.0" y="166.0" font-size="21" fill="#7dd3fc" text-anchor="middle" font-weight="600">F1 - F24</text><text x="1340.0" y="192.0" font-size="18" fill="#64748b" text-anchor="middle">bare F-key</text><rect x="1216.9" y="234.0" width="246.1" height="74" rx="12" fill="#1e293b" stroke="#a78bfa" stroke-width="2.5"/><text x="1340.0" y="266.0" font-size="21" fill="#c4b5fd" text-anchor="middle" font-weight="600">SUPER + F1 - F22</text><text x="1340.0" y="292.0" font-size="18" fill="#64748b" text-anchor="middle">and the four thumb keys</text><rect x="1216.9" y="334.0" width="246.1" height="74" rx="12" fill="#1e293b" stroke="#4ade80" stroke-width="2.5"/><text x="1340.0" y="366.0" font-size="21" fill="#86efac" text-anchor="middle" font-weight="600">SUPER + backspace</text><text x="1340.0" y="392.0" font-size="18" fill="#64748b" text-anchor="middle">stop playback</text>
<text x="0.0" y="1122.8" font-size="22" fill="#64748b" text-anchor="start" font-weight="700" letter-spacing="3">UNASSIGNED</text><rect x="0.0" y="1152.8" width="229.4" height="40" rx="10" fill="#1e293b" stroke="#334155" stroke-width="2"/><text x="114.7" y="1179.8" font-size="20" fill="#64748b" text-anchor="middle">yippeeeeeeeeeeeeee</text><rect x="241.4" y="1152.8" width="512.0" height="40" rx="10" fill="#1e293b" stroke="#334155" stroke-width="2"/><text x="497.4" y="1179.8" font-size="20" fill="#64748b" text-anchor="middle">what-bottom-text-meme-sanctuary-guardian-sound</text><rect x="765.4" y="1152.8" width="238.0" height="40" rx="10" fill="#1e293b" stroke="#334155" stroke-width="2"/><text x="884.4" y="1179.8" font-size="20" fill="#64748b" text-anchor="middle">snore-mimimimimimi</text><rect x="1015.4" y="1152.8" width="156.6" height="40" rx="10" fill="#1e293b" stroke="#334155" stroke-width="2"/><text x="1093.7" y="1179.8" font-size="20" fill="#64748b" text-anchor="middle">ho-ho-ho-ben</text><rect x="1184.0" y="1152.8" width="159.6" height="40" rx="10" fill="#1e293b" stroke="#334155" stroke-width="2"/><text x="1263.8" y="1179.8" font-size="20" fill="#64748b" text-anchor="middle">dexter-meme</text><rect x="1355.6" y="1152.8" width="75.4" height="40" rx="10" fill="#1e293b" stroke="#334155" stroke-width="2"/><text x="1393.3" y="1179.8" font-size="20" fill="#64748b" text-anchor="middle">ding</text><rect x="1443.0" y="1152.8" width="137.6" height="40" rx="10" fill="#1e293b" stroke="#334155" stroke-width="2"/><text x="1511.8" y="1179.8" font-size="20" fill="#64748b" text-anchor="middle">gah-dayum</text><rect x="1592.6" y="1152.8" width="199.0" height="40" rx="10" fill="#1e293b" stroke="#334155" stroke-width="2"/><text x="1692.1" y="1179.8" font-size="20" fill="#64748b" text-anchor="middle">gta-v-notification</text><rect x="1803.6" y="1152.8" width="267.0" height="40" rx="10" fill="#1e293b" stroke="#334155" stroke-width="2"/><text x="1937.1" y="1179.8" font-size="20" fill="#64748b" text-anchor="middle">homer-lets-the-barts-out</text><rect x="2082.6" y="1152.8" width="202.8" height="40" rx="10" fill="#1e293b" stroke="#334155" stroke-width="2"/><text x="2184.0" y="1179.8" font-size="20" fill="#64748b" text-anchor="middle">talking-ben-sound</text>
</svg>
